# MagicaVoxel @ Ephtracy

# group
o 

# material
mtllib BlockBox_2-0.mtl
usemtl palette

# normals
vn -1 0 0
vn 1 0 0
vn 0 0 1
vn 0 0 -1
vn 0 -1 0
vn 0 1 0

# texcoords
vt 0.947266 0.5
vt 0.955078 0.5
vt 0.970703 0.5

# verts
v -0.8 1.1 0.8
v -0.8 1.1 -0.8
v -0.8 1.2 0.8
v -0.8 1.2 0.6
v -0.8 1.2 0.5
v -0.8 1.2 -0.5
v -0.8 1.2 -0.6
v -0.8 1.2 -0.8
v -0.8 1.5 0.5
v -0.8 1.5 -0.5
v -0.8 1.6 0.8
v -0.8 1.6 0.6
v -0.8 1.6 -0.6
v -0.8 1.6 -0.8
v -0.1 0.9 -0.8
v -0.1 0.9 -0.9
v -0.1 1.1 -0.8
v -0.1 1.2 -0.8
v -0.1 1.3 -0.8
v -0.1 1.3 -0.9
v 0.7 1.1 0.7
v 0.7 1.1 -0.7
v 0.7 1.2 0.7
v 0.7 1.2 0.6
v 0.7 1.2 0.5
v 0.7 1.2 -0.5
v 0.7 1.2 -0.6
v 0.7 1.2 -0.7
v 0.7 1.5 0.7
v 0.7 1.5 0.6
v 0.7 1.5 0.5
v 0.7 1.5 -0.5
v 0.7 1.5 -0.6
v 0.7 1.5 -0.7
v -0.7 1.1 0.7
v -0.7 1.1 -0.7
v -0.7 1.2 0.7
v -0.7 1.2 0.6
v -0.7 1.2 0.5
v -0.7 1.2 -0.5
v -0.7 1.2 -0.6
v -0.7 1.2 -0.7
v -0.7 1.5 0.7
v -0.7 1.5 0.6
v -0.7 1.5 0.5
v -0.7 1.5 -0.5
v -0.7 1.5 -0.6
v -0.7 1.5 -0.7
v 0.1 0.9 -0.8
v 0.1 0.9 -0.9
v 0.1 1.1 -0.8
v 0.1 1.2 -0.8
v 0.1 1.3 -0.8
v 0.1 1.3 -0.9
v 0.8 1.1 0.8
v 0.8 1.1 -0.8
v 0.8 1.2 0.8
v 0.8 1.2 0.6
v 0.8 1.2 0.5
v 0.8 1.2 -0.5
v 0.8 1.2 -0.6
v 0.8 1.2 -0.8
v 0.8 1.5 0.5
v 0.8 1.5 -0.5
v 0.8 1.6 0.8
v 0.8 1.6 0.6
v 0.8 1.6 -0.6
v 0.8 1.6 -0.8
v -0.8 1.1 0.8
v -0.8 1.2 0.8
v -0.8 1.6 0.8
v -0.6 1.2 0.8
v -0.6 1.6 0.8
v -0.5 1.2 0.8
v -0.5 1.5 0.8
v 0.5 1.2 0.8
v 0.5 1.5 0.8
v 0.6 1.2 0.8
v 0.6 1.6 0.8
v 0.8 1.1 0.8
v 0.8 1.2 0.8
v 0.8 1.6 0.8
v -0.7 1.1 -0.7
v -0.7 1.2 -0.7
v -0.7 1.5 -0.7
v -0.6 1.2 -0.7
v -0.6 1.5 -0.7
v -0.5 1.2 -0.7
v -0.5 1.5 -0.7
v 0.5 1.2 -0.7
v 0.5 1.5 -0.7
v 0.6 1.2 -0.7
v 0.6 1.5 -0.7
v 0.7 1.1 -0.7
v 0.7 1.2 -0.7
v 0.7 1.5 -0.7
v -0.1 0.9 -0.8
v -0.1 1.1 -0.8
v 0.1 0.9 -0.8
v 0.1 1.1 -0.8
v -0.7 1.1 0.7
v -0.7 1.2 0.7
v -0.7 1.5 0.7
v -0.6 1.2 0.7
v -0.6 1.5 0.7
v -0.5 1.2 0.7
v -0.5 1.5 0.7
v 0.5 1.2 0.7
v 0.5 1.5 0.7
v 0.6 1.2 0.7
v 0.6 1.5 0.7
v 0.7 1.1 0.7
v 0.7 1.2 0.7
v 0.7 1.5 0.7
v -0.8 1.1 -0.8
v -0.8 1.2 -0.8
v -0.8 1.6 -0.8
v -0.6 1.2 -0.8
v -0.6 1.6 -0.8
v -0.5 1.2 -0.8
v -0.5 1.5 -0.8
v -0.1 1.1 -0.8
v -0.1 1.2 -0.8
v -0.1 1.3 -0.8
v 0.1 1.1 -0.8
v 0.1 1.2 -0.8
v 0.1 1.3 -0.8
v 0.5 1.2 -0.8
v 0.5 1.5 -0.8
v 0.6 1.2 -0.8
v 0.6 1.6 -0.8
v 0.8 1.1 -0.8
v 0.8 1.2 -0.8
v 0.8 1.6 -0.8
v -0.1 0.9 -0.9
v -0.1 1.3 -0.9
v 0.1 0.9 -0.9
v 0.1 1.3 -0.9
v -0.1 0.9 -0.8
v 0.1 0.9 -0.8
v -0.1 0.9 -0.9
v 0.1 0.9 -0.9
v -0.8 1.1 0.8
v 0.8 1.1 0.8
v -0.7 1.1 0.7
v 0.7 1.1 0.7
v -0.7 1.1 -0.7
v 0.7 1.1 -0.7
v -0.8 1.1 -0.8
v -0.1 1.1 -0.8
v 0.1 1.1 -0.8
v 0.8 1.1 -0.8
v -0.7 1.5 0.7
v -0.6 1.5 0.7
v -0.5 1.5 0.7
v 0.5 1.5 0.7
v 0.6 1.5 0.7
v 0.7 1.5 0.7
v -0.7 1.5 0.6
v -0.6 1.5 0.6
v 0.6 1.5 0.6
v 0.7 1.5 0.6
v -0.7 1.5 0.5
v -0.5 1.5 0.5
v 0.5 1.5 0.5
v 0.7 1.5 0.5
v -0.7 1.5 -0.5
v -0.5 1.5 -0.5
v 0.5 1.5 -0.5
v 0.7 1.5 -0.5
v -0.7 1.5 -0.6
v -0.6 1.5 -0.6
v 0.6 1.5 -0.6
v 0.7 1.5 -0.6
v -0.7 1.5 -0.7
v -0.6 1.5 -0.7
v -0.5 1.5 -0.7
v 0.5 1.5 -0.7
v 0.6 1.5 -0.7
v 0.7 1.5 -0.7
v -0.1 1.3 -0.8
v 0.1 1.3 -0.8
v -0.1 1.3 -0.9
v 0.1 1.3 -0.9
v -0.8 1.6 0.8
v -0.6 1.6 0.8
v 0.6 1.6 0.8
v 0.8 1.6 0.8
v -0.5 1.6 0.7
v 0.5 1.6 0.7
v -0.8 1.6 0.6
v -0.6 1.6 0.6
v 0.6 1.6 0.6
v 0.8 1.6 0.6
v -0.7 1.6 0.5
v -0.5 1.6 0.5
v 0.5 1.6 0.5
v 0.7 1.6 0.5
v -0.7 1.6 -0.5
v -0.5 1.6 -0.5
v 0.5 1.6 -0.5
v 0.7 1.6 -0.5
v -0.8 1.6 -0.6
v -0.6 1.6 -0.6
v 0.6 1.6 -0.6
v 0.8 1.6 -0.6
v -0.5 1.6 -0.7
v 0.5 1.6 -0.7
v -0.8 1.6 -0.8
v -0.6 1.6 -0.8
v 0.6 1.6 -0.8
v 0.8 1.6 -0.8

# faces
f 3/2/1 2/2/1 1/2/1
f 4/2/1 2/2/1 3/2/1
f 5/2/1 2/2/1 4/2/1
f 6/2/1 2/2/1 5/2/1
f 7/2/1 2/2/1 6/2/1
f 8/2/1 2/2/1 7/2/1
f 9/2/1 5/2/1 4/2/1
f 9/1/1 6/1/1 5/1/1
f 10/2/1 7/2/1 6/2/1
f 10/1/1 6/1/1 9/1/1
f 11/3/1 4/3/1 3/3/1
f 12/2/1 9/2/1 4/2/1
f 12/3/1 4/3/1 11/3/1
f 12/2/1 10/2/1 9/2/1
f 13/2/1 7/2/1 10/2/1
f 13/2/1 10/2/1 12/2/1
f 13/3/1 8/3/1 7/3/1
f 14/3/1 8/3/1 13/3/1
f 17/3/1 16/3/1 15/3/1
f 18/3/1 16/3/1 17/3/1
f 19/3/1 16/3/1 18/3/1
f 20/3/1 16/3/1 19/3/1
f 23/2/1 22/2/1 21/2/1
f 24/2/1 22/2/1 23/2/1
f 25/2/1 22/2/1 24/2/1
f 26/2/1 22/2/1 25/2/1
f 27/2/1 22/2/1 26/2/1
f 28/2/1 22/2/1 27/2/1
f 29/3/1 24/3/1 23/3/1
f 30/2/1 25/2/1 24/2/1
f 30/3/1 24/3/1 29/3/1
f 31/1/1 26/1/1 25/1/1
f 31/2/1 25/2/1 30/2/1
f 32/2/1 27/2/1 26/2/1
f 32/1/1 26/1/1 31/1/1
f 33/3/1 28/3/1 27/3/1
f 33/2/1 27/2/1 32/2/1
f 34/3/1 28/3/1 33/3/1
f 35/2/2 36/2/2 37/2/2
f 37/2/2 36/2/2 38/2/2
f 38/2/2 36/2/2 39/2/2
f 39/2/2 36/2/2 40/2/2
f 40/2/2 36/2/2 41/2/2
f 41/2/2 36/2/2 42/2/2
f 37/3/2 38/3/2 43/3/2
f 38/2/2 39/2/2 44/2/2
f 43/3/2 38/3/2 44/3/2
f 39/1/2 40/1/2 45/1/2
f 44/2/2 39/2/2 45/2/2
f 40/2/2 41/2/2 46/2/2
f 45/1/2 40/1/2 46/1/2
f 41/3/2 42/3/2 47/3/2
f 46/2/2 41/2/2 47/2/2
f 47/3/2 42/3/2 48/3/2
f 49/3/2 50/3/2 51/3/2
f 51/3/2 50/3/2 52/3/2
f 52/3/2 50/3/2 53/3/2
f 53/3/2 50/3/2 54/3/2
f 55/2/2 56/2/2 57/2/2
f 57/2/2 56/2/2 58/2/2
f 58/2/2 56/2/2 59/2/2
f 59/2/2 56/2/2 60/2/2
f 60/2/2 56/2/2 61/2/2
f 61/2/2 56/2/2 62/2/2
f 58/2/2 59/2/2 63/2/2
f 59/1/2 60/1/2 63/1/2
f 60/2/2 61/2/2 64/2/2
f 63/1/2 60/1/2 64/1/2
f 57/3/2 58/3/2 65/3/2
f 58/2/2 63/2/2 66/2/2
f 65/3/2 58/3/2 66/3/2
f 63/2/2 64/2/2 66/2/2
f 64/2/2 61/2/2 67/2/2
f 66/2/2 64/2/2 67/2/2
f 61/3/2 62/3/2 67/3/2
f 67/3/2 62/3/2 68/3/2
f 72/2/3 70/2/3 69/2/3
f 72/3/3 71/3/3 70/3/3
f 73/3/3 71/3/3 72/3/3
f 74/2/3 72/2/3 69/2/3
f 74/2/3 73/2/3 72/2/3
f 75/2/3 73/2/3 74/2/3
f 76/2/3 74/2/3 69/2/3
f 76/1/3 75/1/3 74/1/3
f 77/2/3 73/2/3 75/2/3
f 77/1/3 75/1/3 76/1/3
f 78/2/3 76/2/3 69/2/3
f 78/2/3 77/2/3 76/2/3
f 79/2/3 73/2/3 77/2/3
f 79/2/3 77/2/3 78/2/3
f 80/2/3 78/2/3 69/2/3
f 81/3/3 79/3/3 78/3/3
f 81/2/3 78/2/3 80/2/3
f 82/3/3 79/3/3 81/3/3
f 86/2/3 84/2/3 83/2/3
f 86/3/3 85/3/3 84/3/3
f 87/3/3 85/3/3 86/3/3
f 88/2/3 86/2/3 83/2/3
f 88/2/3 87/2/3 86/2/3
f 89/2/3 87/2/3 88/2/3
f 90/2/3 88/2/3 83/2/3
f 90/1/3 89/1/3 88/1/3
f 91/1/3 89/1/3 90/1/3
f 92/2/3 90/2/3 83/2/3
f 92/2/3 91/2/3 90/2/3
f 93/2/3 91/2/3 92/2/3
f 94/2/3 92/2/3 83/2/3
f 95/3/3 93/3/3 92/3/3
f 95/2/3 92/2/3 94/2/3
f 96/3/3 93/3/3 95/3/3
f 99/3/3 98/3/3 97/3/3
f 100/3/3 98/3/3 99/3/3
f 101/2/4 102/2/4 104/2/4
f 102/3/4 103/3/4 104/3/4
f 104/3/4 103/3/4 105/3/4
f 101/2/4 104/2/4 106/2/4
f 104/2/4 105/2/4 106/2/4
f 106/2/4 105/2/4 107/2/4
f 101/2/4 106/2/4 108/2/4
f 106/1/4 107/1/4 108/1/4
f 108/1/4 107/1/4 109/1/4
f 101/2/4 108/2/4 110/2/4
f 108/2/4 109/2/4 110/2/4
f 110/2/4 109/2/4 111/2/4
f 101/2/4 110/2/4 112/2/4
f 110/3/4 111/3/4 113/3/4
f 112/2/4 110/2/4 113/2/4
f 113/3/4 111/3/4 114/3/4
f 115/2/4 116/2/4 118/2/4
f 116/3/4 117/3/4 118/3/4
f 118/3/4 117/3/4 119/3/4
f 115/2/4 118/2/4 120/2/4
f 118/2/4 119/2/4 120/2/4
f 120/2/4 119/2/4 121/2/4
f 115/2/4 120/2/4 122/2/4
f 120/1/4 121/1/4 123/1/4
f 122/2/4 120/2/4 123/2/4
f 123/1/4 121/1/4 124/1/4
f 124/1/4 121/1/4 127/1/4
f 125/2/4 126/2/4 128/2/4
f 126/1/4 127/1/4 128/1/4
f 121/2/4 119/2/4 129/2/4
f 128/1/4 127/1/4 129/1/4
f 127/1/4 121/1/4 129/1/4
f 125/2/4 128/2/4 130/2/4
f 128/2/4 129/2/4 130/2/4
f 129/2/4 119/2/4 131/2/4
f 130/2/4 129/2/4 131/2/4
f 125/2/4 130/2/4 132/2/4
f 130/3/4 131/3/4 133/3/4
f 132/2/4 130/2/4 133/2/4
f 133/3/4 131/3/4 134/3/4
f 135/3/4 136/3/4 137/3/4
f 137/3/4 136/3/4 138/3/4
f 141/3/5 140/3/5 139/3/5
f 142/3/5 140/3/5 141/3/5
f 145/2/5 144/2/5 143/2/5
f 146/2/5 144/2/5 145/2/5
f 147/2/5 145/2/5 143/2/5
f 148/2/5 144/2/5 146/2/5
f 149/2/5 147/2/5 143/2/5
f 149/2/5 148/2/5 147/2/5
f 150/2/5 148/2/5 149/2/5
f 151/2/5 148/2/5 150/2/5
f 152/2/5 144/2/5 148/2/5
f 152/2/5 148/2/5 151/2/5
f 159/3/5 154/3/5 153/3/5
f 160/2/5 155/2/5 154/2/5
f 160/3/5 154/3/5 159/3/5
f 161/3/5 158/3/5 157/3/5
f 161/2/5 157/2/5 156/2/5
f 162/3/5 158/3/5 161/3/5
f 163/2/5 160/2/5 159/2/5
f 164/2/5 155/2/5 160/2/5
f 164/2/5 160/2/5 163/2/5
f 164/1/5 156/1/5 155/1/5
f 165/2/5 162/2/5 161/2/5
f 165/1/5 156/1/5 164/1/5
f 165/2/5 161/2/5 156/2/5
f 166/2/5 162/2/5 165/2/5
f 167/1/5 164/1/5 163/1/5
f 167/1/5 165/1/5 164/1/5
f 167/1/5 166/1/5 165/1/5
f 168/1/5 166/1/5 167/1/5
f 169/1/5 166/1/5 168/1/5
f 170/1/5 166/1/5 169/1/5
f 171/2/5 168/2/5 167/2/5
f 172/2/5 168/2/5 171/2/5
f 173/2/5 170/2/5 169/2/5
f 174/2/5 170/2/5 173/2/5
f 175/3/5 172/3/5 171/3/5
f 176/2/5 168/2/5 172/2/5
f 176/3/5 172/3/5 175/3/5
f 177/1/5 169/1/5 168/1/5
f 177/2/5 168/2/5 176/2/5
f 178/2/5 173/2/5 169/2/5
f 178/1/5 169/1/5 177/1/5
f 179/3/5 174/3/5 173/3/5
f 179/2/5 173/2/5 178/2/5
f 180/3/5 174/3/5 179/3/5
f 181/3/6 182/3/6 183/3/6
f 183/3/6 182/3/6 184/3/6
f 186/2/6 187/2/6 189/2/6
f 189/2/6 187/2/6 190/2/6
f 185/3/6 186/3/6 191/3/6
f 186/2/6 189/2/6 192/2/6
f 191/3/6 186/3/6 192/3/6
f 190/2/6 187/2/6 193/2/6
f 187/3/6 188/3/6 193/3/6
f 193/3/6 188/3/6 194/3/6
f 191/2/6 192/2/6 195/2/6
f 192/2/6 189/2/6 196/2/6
f 195/2/6 192/2/6 196/2/6
f 189/1/6 190/1/6 196/1/6
f 193/2/6 194/2/6 197/2/6
f 196/1/6 190/1/6 197/1/6
f 190/2/6 193/2/6 197/2/6
f 197/2/6 194/2/6 198/2/6
f 191/2/6 195/2/6 199/2/6
f 195/1/6 196/1/6 199/1/6
f 197/1/6 198/1/6 199/1/6
f 196/1/6 197/1/6 199/1/6
f 199/1/6 198/1/6 200/1/6
f 200/1/6 198/1/6 201/1/6
f 198/2/6 194/2/6 202/2/6
f 201/1/6 198/1/6 202/1/6
f 191/2/6 199/2/6 203/2/6
f 199/2/6 200/2/6 203/2/6
f 203/2/6 200/2/6 204/2/6
f 201/2/6 202/2/6 205/2/6
f 202/2/6 194/2/6 206/2/6
f 205/2/6 202/2/6 206/2/6
f 200/1/6 201/1/6 207/1/6
f 204/2/6 200/2/6 207/2/6
f 201/2/6 205/2/6 208/2/6
f 207/1/6 201/1/6 208/1/6
f 203/3/6 204/3/6 209/3/6
f 204/2/6 207/2/6 210/2/6
f 209/3/6 204/3/6 210/3/6
f 207/2/6 208/2/6 210/2/6
f 205/3/6 206/3/6 211/3/6
f 210/2/6 208/2/6 211/2/6
f 208/2/6 205/2/6 211/2/6
f 211/3/6 206/3/6 212/3/6
