# MagicaVoxel @ Ephtracy

# group
o 

# material
mtllib BlockCraftingTableSimple.mtl
usemtl palette

# normals
vn -1 0 0
vn 1 0 0
vn 0 0 1
vn 0 0 -1
vn 0 -1 0
vn 0 1 0

# texcoords
vt 0.263672 0.5
vt 0.318359 0.5
vt 0.955078 0.5

# verts
v -0.8 0 0.8
v -0.8 0 0.5
v -0.8 0 -0.5
v -0.8 0 -0.8
v -0.8 1 0.5
v -0.8 1 0.3
v -0.8 1 -0.3
v -0.8 1 -0.5
v -0.8 1.2 0.5
v -0.8 1.2 0.3
v -0.8 1.2 0.1
v -0.8 1.2 -0.1
v -0.8 1.2 -0.3
v -0.8 1.2 -0.5
v -0.8 1.4 0.5
v -0.8 1.4 0.3
v -0.8 1.4 0.1
v -0.8 1.4 -0.1
v -0.8 1.4 -0.3
v -0.8 1.4 -0.5
v -0.8 1.6 0.8
v -0.8 1.6 -0.8
v -0.3 1.2 0.8
v -0.3 1.2 0.5
v -0.3 1.2 -0.5
v -0.3 1.2 -0.8
v -0.3 1.4 0.8
v -0.3 1.4 0.5
v -0.3 1.4 -0.5
v -0.3 1.4 -0.8
v 0.1 1.2 0.8
v 0.1 1.2 0.5
v 0.1 1.2 -0.5
v 0.1 1.2 -0.8
v 0.1 1.4 0.8
v 0.1 1.4 0.5
v 0.1 1.4 -0.5
v 0.1 1.4 -0.8
v 0.3 1 0.8
v 0.3 1 0.5
v 0.3 1 -0.5
v 0.3 1 -0.8
v 0.3 1.2 0.8
v 0.3 1.2 0.5
v 0.3 1.2 -0.5
v 0.3 1.2 -0.8
v 0.5 0 0.8
v 0.5 0 0.5
v 0.5 0 -0.5
v 0.5 0 -0.8
v 0.5 1 0.8
v 0.5 1 0.5
v 0.5 1 0.3
v 0.5 1 -0.3
v 0.5 1 -0.5
v 0.5 1 -0.8
v 0.5 1.2 0.8
v 0.5 1.2 0.5
v 0.5 1.2 0.3
v 0.5 1.2 0.1
v 0.5 1.2 -0.1
v 0.5 1.2 -0.3
v 0.5 1.2 -0.5
v 0.5 1.2 -0.8
v 0.5 1.4 0.8
v 0.5 1.4 0.5
v 0.5 1.4 0.3
v 0.5 1.4 0.1
v 0.5 1.4 -0.1
v 0.5 1.4 -0.3
v 0.5 1.4 -0.5
v 0.5 1.4 -0.8
v -0.5 0 0.8
v -0.5 0 0.5
v -0.5 0 -0.5
v -0.5 0 -0.8
v -0.5 1 0.8
v -0.5 1 0.5
v -0.5 1 0.3
v -0.5 1 -0.3
v -0.5 1 -0.5
v -0.5 1 -0.8
v -0.5 1.2 0.8
v -0.5 1.2 0.5
v -0.5 1.2 0.3
v -0.5 1.2 0.1
v -0.5 1.2 -0.1
v -0.5 1.2 -0.3
v -0.5 1.2 -0.5
v -0.5 1.2 -0.8
v -0.5 1.4 0.8
v -0.5 1.4 0.5
v -0.5 1.4 0.3
v -0.5 1.4 0.1
v -0.5 1.4 -0.1
v -0.5 1.4 -0.3
v -0.5 1.4 -0.5
v -0.5 1.4 -0.8
v -0.3 1 0.8
v -0.3 1 0.5
v -0.3 1 -0.5
v -0.3 1 -0.8
v -0.3 1.2 0.8
v -0.3 1.2 0.5
v -0.3 1.2 -0.5
v -0.3 1.2 -0.8
v -0.1 1.2 0.8
v -0.1 1.2 0.5
v -0.1 1.2 -0.5
v -0.1 1.2 -0.8
v -0.1 1.4 0.8
v -0.1 1.4 0.5
v -0.1 1.4 -0.5
v -0.1 1.4 -0.8
v 0.3 1.2 0.8
v 0.3 1.2 0.5
v 0.3 1.2 -0.5
v 0.3 1.2 -0.8
v 0.3 1.4 0.8
v 0.3 1.4 0.5
v 0.3 1.4 -0.5
v 0.3 1.4 -0.8
v 0.8 0 0.8
v 0.8 0 0.5
v 0.8 0 -0.5
v 0.8 0 -0.8
v 0.8 1 0.5
v 0.8 1 0.3
v 0.8 1 -0.3
v 0.8 1 -0.5
v 0.8 1.2 0.5
v 0.8 1.2 0.3
v 0.8 1.2 0.1
v 0.8 1.2 -0.1
v 0.8 1.2 -0.3
v 0.8 1.2 -0.5
v 0.8 1.4 0.5
v 0.8 1.4 0.3
v 0.8 1.4 0.1
v 0.8 1.4 -0.1
v 0.8 1.4 -0.3
v 0.8 1.4 -0.5
v 0.8 1.6 0.8
v 0.8 1.6 -0.8
v -0.8 0 0.8
v -0.8 1.6 0.8
v -0.5 0 0.8
v -0.5 1 0.8
v -0.5 1.2 0.8
v -0.5 1.4 0.8
v -0.3 1 0.8
v -0.3 1.2 0.8
v -0.3 1.4 0.8
v -0.1 1.2 0.8
v -0.1 1.4 0.8
v 0.1 1.2 0.8
v 0.1 1.4 0.8
v 0.3 1 0.8
v 0.3 1.2 0.8
v 0.3 1.4 0.8
v 0.5 0 0.8
v 0.5 1 0.8
v 0.5 1.2 0.8
v 0.5 1.4 0.8
v 0.8 0 0.8
v 0.8 1.6 0.8
v -0.8 1.2 0.3
v -0.8 1.4 0.3
v -0.5 1.2 0.3
v -0.5 1.4 0.3
v 0.5 1.2 0.3
v 0.5 1.4 0.3
v 0.8 1.2 0.3
v 0.8 1.4 0.3
v -0.8 1.2 -0.1
v -0.8 1.4 -0.1
v -0.5 1.2 -0.1
v -0.5 1.4 -0.1
v 0.5 1.2 -0.1
v 0.5 1.4 -0.1
v 0.8 1.2 -0.1
v 0.8 1.4 -0.1
v -0.8 1 -0.3
v -0.8 1.2 -0.3
v -0.5 1 -0.3
v -0.5 1.2 -0.3
v 0.5 1 -0.3
v 0.5 1.2 -0.3
v 0.8 1 -0.3
v 0.8 1.2 -0.3
v -0.8 0 -0.5
v -0.8 1 -0.5
v -0.8 1.2 -0.5
v -0.8 1.4 -0.5
v -0.5 0 -0.5
v -0.5 1 -0.5
v -0.5 1.2 -0.5
v -0.5 1.4 -0.5
v -0.3 1 -0.5
v -0.3 1.2 -0.5
v -0.3 1.4 -0.5
v -0.1 1.2 -0.5
v -0.1 1.4 -0.5
v 0.1 1.2 -0.5
v 0.1 1.4 -0.5
v 0.3 1 -0.5
v 0.3 1.2 -0.5
v 0.3 1.4 -0.5
v 0.5 0 -0.5
v 0.5 1 -0.5
v 0.5 1.2 -0.5
v 0.5 1.4 -0.5
v 0.8 0 -0.5
v 0.8 1 -0.5
v 0.8 1.2 -0.5
v 0.8 1.4 -0.5
v -0.8 0 0.5
v -0.8 1 0.5
v -0.8 1.2 0.5
v -0.8 1.4 0.5
v -0.5 0 0.5
v -0.5 1 0.5
v -0.5 1.2 0.5
v -0.5 1.4 0.5
v -0.3 1 0.5
v -0.3 1.2 0.5
v -0.3 1.4 0.5
v -0.1 1.2 0.5
v -0.1 1.4 0.5
v 0.1 1.2 0.5
v 0.1 1.4 0.5
v 0.3 1 0.5
v 0.3 1.2 0.5
v 0.3 1.4 0.5
v 0.5 0 0.5
v 0.5 1 0.5
v 0.5 1.2 0.5
v 0.5 1.4 0.5
v 0.8 0 0.5
v 0.8 1 0.5
v 0.8 1.2 0.5
v 0.8 1.4 0.5
v -0.8 1 0.3
v -0.8 1.2 0.3
v -0.5 1 0.3
v -0.5 1.2 0.3
v 0.5 1 0.3
v 0.5 1.2 0.3
v 0.8 1 0.3
v 0.8 1.2 0.3
v -0.8 1.2 0.1
v -0.8 1.4 0.1
v -0.5 1.2 0.1
v -0.5 1.4 0.1
v 0.5 1.2 0.1
v 0.5 1.4 0.1
v 0.8 1.2 0.1
v 0.8 1.4 0.1
v -0.8 1.2 -0.3
v -0.8 1.4 -0.3
v -0.5 1.2 -0.3
v -0.5 1.4 -0.3
v 0.5 1.2 -0.3
v 0.5 1.4 -0.3
v 0.8 1.2 -0.3
v 0.8 1.4 -0.3
v -0.8 0 -0.8
v -0.8 1.6 -0.8
v -0.5 0 -0.8
v -0.5 1 -0.8
v -0.5 1.2 -0.8
v -0.5 1.4 -0.8
v -0.3 1 -0.8
v -0.3 1.2 -0.8
v -0.3 1.4 -0.8
v -0.1 1.2 -0.8
v -0.1 1.4 -0.8
v 0.1 1.2 -0.8
v 0.1 1.4 -0.8
v 0.3 1 -0.8
v 0.3 1.2 -0.8
v 0.3 1.4 -0.8
v 0.5 0 -0.8
v 0.5 1 -0.8
v 0.5 1.2 -0.8
v 0.5 1.4 -0.8
v 0.8 0 -0.8
v 0.8 1.6 -0.8
v -0.8 0 0.8
v -0.5 0 0.8
v 0.5 0 0.8
v 0.8 0 0.8
v -0.8 0 0.5
v -0.5 0 0.5
v 0.5 0 0.5
v 0.8 0 0.5
v -0.8 0 -0.5
v -0.5 0 -0.5
v 0.5 0 -0.5
v 0.8 0 -0.5
v -0.8 0 -0.8
v -0.5 0 -0.8
v 0.5 0 -0.8
v 0.8 0 -0.8
v -0.5 1 0.8
v -0.3 1 0.8
v 0.3 1 0.8
v 0.5 1 0.8
v -0.8 1 0.5
v -0.5 1 0.5
v -0.3 1 0.5
v 0.3 1 0.5
v 0.5 1 0.5
v 0.8 1 0.5
v -0.8 1 0.3
v -0.5 1 0.3
v 0.5 1 0.3
v 0.8 1 0.3
v -0.8 1 -0.3
v -0.5 1 -0.3
v 0.5 1 -0.3
v 0.8 1 -0.3
v -0.8 1 -0.5
v -0.5 1 -0.5
v -0.3 1 -0.5
v 0.3 1 -0.5
v 0.5 1 -0.5
v 0.8 1 -0.5
v -0.5 1 -0.8
v -0.3 1 -0.8
v 0.3 1 -0.8
v 0.5 1 -0.8
v -0.3 1.2 0.8
v -0.1 1.2 0.8
v 0.1 1.2 0.8
v 0.3 1.2 0.8
v -0.3 1.2 0.5
v -0.1 1.2 0.5
v 0.1 1.2 0.5
v 0.3 1.2 0.5
v -0.8 1.2 0.3
v -0.5 1.2 0.3
v 0.5 1.2 0.3
v 0.8 1.2 0.3
v -0.8 1.2 0.1
v -0.5 1.2 0.1
v 0.5 1.2 0.1
v 0.8 1.2 0.1
v -0.8 1.2 -0.1
v -0.5 1.2 -0.1
v 0.5 1.2 -0.1
v 0.8 1.2 -0.1
v -0.8 1.2 -0.3
v -0.5 1.2 -0.3
v 0.5 1.2 -0.3
v 0.8 1.2 -0.3
v -0.3 1.2 -0.5
v -0.1 1.2 -0.5
v 0.1 1.2 -0.5
v 0.3 1.2 -0.5
v -0.3 1.2 -0.8
v -0.1 1.2 -0.8
v 0.1 1.2 -0.8
v 0.3 1.2 -0.8
v -0.5 1.4 0.8
v -0.3 1.4 0.8
v -0.1 1.4 0.8
v 0.1 1.4 0.8
v 0.3 1.4 0.8
v 0.5 1.4 0.8
v -0.8 1.4 0.5
v -0.5 1.4 0.5
v -0.3 1.4 0.5
v -0.1 1.4 0.5
v 0.1 1.4 0.5
v 0.3 1.4 0.5
v 0.5 1.4 0.5
v 0.8 1.4 0.5
v -0.8 1.4 0.3
v -0.5 1.4 0.3
v 0.5 1.4 0.3
v 0.8 1.4 0.3
v -0.8 1.4 0.1
v -0.5 1.4 0.1
v 0.5 1.4 0.1
v 0.8 1.4 0.1
v -0.8 1.4 -0.1
v -0.5 1.4 -0.1
v 0.5 1.4 -0.1
v 0.8 1.4 -0.1
v -0.8 1.4 -0.3
v -0.5 1.4 -0.3
v 0.5 1.4 -0.3
v 0.8 1.4 -0.3
v -0.8 1.4 -0.5
v -0.5 1.4 -0.5
v -0.3 1.4 -0.5
v -0.1 1.4 -0.5
v 0.1 1.4 -0.5
v 0.3 1.4 -0.5
v 0.5 1.4 -0.5
v 0.8 1.4 -0.5
v -0.5 1.4 -0.8
v -0.3 1.4 -0.8
v -0.1 1.4 -0.8
v 0.1 1.4 -0.8
v 0.3 1.4 -0.8
v 0.5 1.4 -0.8
v -0.5 1.2 0.8
v -0.3 1.2 0.8
v 0.3 1.2 0.8
v 0.5 1.2 0.8
v -0.8 1.2 0.5
v -0.5 1.2 0.5
v -0.3 1.2 0.5
v 0.3 1.2 0.5
v 0.5 1.2 0.5
v 0.8 1.2 0.5
v -0.8 1.2 0.3
v -0.5 1.2 0.3
v 0.5 1.2 0.3
v 0.8 1.2 0.3
v -0.8 1.2 -0.3
v -0.5 1.2 -0.3
v 0.5 1.2 -0.3
v 0.8 1.2 -0.3
v -0.8 1.2 -0.5
v -0.5 1.2 -0.5
v -0.3 1.2 -0.5
v 0.3 1.2 -0.5
v 0.5 1.2 -0.5
v 0.8 1.2 -0.5
v -0.5 1.2 -0.8
v -0.3 1.2 -0.8
v 0.3 1.2 -0.8
v 0.5 1.2 -0.8
v -0.8 1.6 0.8
v 0.8 1.6 0.8
v -0.5 1.6 0.5
v 0.5 1.6 0.5
v -0.4 1.6 0.4
v -0.2 1.6 0.4
v -0.1 1.6 0.4
v 0.1 1.6 0.4
v 0.2 1.6 0.4
v 0.4 1.6 0.4
v -0.4 1.6 0.2
v -0.2 1.6 0.2
v -0.1 1.6 0.2
v 0.1 1.6 0.2
v 0.2 1.6 0.2
v 0.4 1.6 0.2
v -0.4 1.6 0.1
v -0.2 1.6 0.1
v -0.1 1.6 0.1
v 0.1 1.6 0.1
v 0.2 1.6 0.1
v 0.4 1.6 0.1
v -0.4 1.6 -0.1
v -0.2 1.6 -0.1
v -0.1 1.6 -0.1
v 0.1 1.6 -0.1
v 0.2 1.6 -0.1
v 0.4 1.6 -0.1
v -0.4 1.6 -0.2
v -0.2 1.6 -0.2
v -0.1 1.6 -0.2
v 0.1 1.6 -0.2
v 0.2 1.6 -0.2
v 0.4 1.6 -0.2
v -0.4 1.6 -0.4
v -0.2 1.6 -0.4
v -0.1 1.6 -0.4
v 0.1 1.6 -0.4
v 0.2 1.6 -0.4
v 0.4 1.6 -0.4
v -0.5 1.6 -0.5
v 0.5 1.6 -0.5
v -0.8 1.6 -0.8
v 0.8 1.6 -0.8

# faces
f 5/2/1 2/2/1 1/2/1
f 8/2/1 4/2/1 3/2/1
f 9/2/1 6/2/1 5/2/1
f 9/2/1 5/2/1 1/2/1
f 10/2/1 6/2/1 9/2/1
f 13/2/1 8/2/1 7/2/1
f 14/2/1 4/2/1 8/2/1
f 14/2/1 8/2/1 13/2/1
f 15/2/1 9/2/1 1/2/1
f 16/2/1 11/2/1 10/2/1
f 17/2/1 11/2/1 16/2/1
f 18/2/1 13/2/1 12/2/1
f 19/2/1 13/2/1 18/2/1
f 20/2/1 4/2/1 14/2/1
f 21/2/1 15/2/1 1/2/1
f 21/2/1 20/2/1 19/2/1
f 21/2/1 17/2/1 16/2/1
f 21/2/1 19/2/1 18/2/1
f 21/2/1 18/2/1 17/2/1
f 21/2/1 16/2/1 15/2/1
f 22/2/1 4/2/1 20/2/1
f 22/2/1 20/2/1 21/2/1
f 27/2/1 24/2/1 23/2/1
f 28/2/1 24/2/1 27/2/1
f 29/2/1 26/2/1 25/2/1
f 30/2/1 26/2/1 29/2/1
f 35/2/1 32/2/1 31/2/1
f 36/2/1 32/2/1 35/2/1
f 37/2/1 34/2/1 33/2/1
f 38/2/1 34/2/1 37/2/1
f 43/2/1 40/2/1 39/2/1
f 44/2/1 40/2/1 43/2/1
f 45/2/1 42/2/1 41/2/1
f 46/2/1 42/2/1 45/2/1
f 51/2/1 48/2/1 47/2/1
f 52/2/1 48/2/1 51/2/1
f 55/2/1 50/2/1 49/2/1
f 56/2/1 50/2/1 55/2/1
f 58/2/1 53/2/1 52/2/1
f 59/2/1 53/2/1 58/2/1
f 62/2/1 55/2/1 54/2/1
f 63/2/1 55/2/1 62/2/1
f 65/2/1 58/2/1 57/2/1
f 66/2/1 58/2/1 65/2/1
f 67/2/1 60/2/1 59/2/1
f 68/2/1 60/2/1 67/2/1
f 69/2/1 62/2/1 61/2/1
f 70/2/1 62/2/1 69/2/1
f 71/2/1 64/2/1 63/2/1
f 72/2/1 64/2/1 71/2/1
f 73/2/2 74/2/2 77/2/2
f 77/2/2 74/2/2 78/2/2
f 75/2/2 76/2/2 81/2/2
f 81/2/2 76/2/2 82/2/2
f 78/2/2 79/2/2 84/2/2
f 84/2/2 79/2/2 85/2/2
f 80/2/2 81/2/2 88/2/2
f 88/2/2 81/2/2 89/2/2
f 83/2/2 84/2/2 91/2/2
f 91/2/2 84/2/2 92/2/2
f 85/2/2 86/2/2 93/2/2
f 93/2/2 86/2/2 94/2/2
f 87/2/2 88/2/2 95/2/2
f 95/2/2 88/2/2 96/2/2
f 89/2/2 90/2/2 97/2/2
f 97/2/2 90/2/2 98/2/2
f 99/2/2 100/2/2 103/2/2
f 103/2/2 100/2/2 104/2/2
f 101/2/2 102/2/2 105/2/2
f 105/2/2 102/2/2 106/2/2
f 107/2/2 108/2/2 111/2/2
f 111/2/2 108/2/2 112/2/2
f 109/2/2 110/2/2 113/2/2
f 113/2/2 110/2/2 114/2/2
f 115/2/2 116/2/2 119/2/2
f 119/2/2 116/2/2 120/2/2
f 117/2/2 118/2/2 121/2/2
f 121/2/2 118/2/2 122/2/2
f 123/2/2 124/2/2 127/2/2
f 125/2/2 126/2/2 130/2/2
f 127/2/2 128/2/2 131/2/2
f 123/2/2 127/2/2 131/2/2
f 131/2/2 128/2/2 132/2/2
f 129/2/2 130/2/2 135/2/2
f 130/2/2 126/2/2 136/2/2
f 135/2/2 130/2/2 136/2/2
f 123/2/2 131/2/2 137/2/2
f 132/2/2 133/2/2 138/2/2
f 138/2/2 133/2/2 139/2/2
f 134/2/2 135/2/2 140/2/2
f 140/2/2 135/2/2 141/2/2
f 136/2/2 126/2/2 142/2/2
f 123/2/2 137/2/2 143/2/2
f 141/2/2 142/2/2 143/2/2
f 138/2/2 139/2/2 143/2/2
f 140/2/2 141/2/2 143/2/2
f 139/2/2 140/2/2 143/2/2
f 137/2/2 138/2/2 143/2/2
f 142/2/2 126/2/2 144/2/2
f 143/2/2 142/2/2 144/2/2
f 147/2/3 146/2/3 145/2/3
f 148/2/3 146/2/3 147/2/3
f 149/2/3 146/2/3 148/2/3
f 150/2/3 146/2/3 149/2/3
f 151/2/3 149/2/3 148/2/3
f 152/2/3 149/2/3 151/2/3
f 153/2/3 146/2/3 150/2/3
f 154/2/3 153/2/3 152/2/3
f 155/2/3 146/2/3 153/2/3
f 155/2/3 153/2/3 154/2/3
f 157/2/3 146/2/3 155/2/3
f 159/2/3 157/2/3 156/2/3
f 160/2/3 146/2/3 157/2/3
f 160/2/3 157/2/3 159/2/3
f 162/2/3 159/2/3 158/2/3
f 163/2/3 159/2/3 162/2/3
f 164/2/3 146/2/3 160/2/3
f 165/2/3 163/2/3 162/2/3
f 165/2/3 164/2/3 163/2/3
f 165/2/3 162/2/3 161/2/3
f 166/2/3 146/2/3 164/2/3
f 166/2/3 164/2/3 165/2/3
f 169/2/3 168/2/3 167/2/3
f 170/2/3 168/2/3 169/2/3
f 173/2/3 172/2/3 171/2/3
f 174/2/3 172/2/3 173/2/3
f 177/2/3 176/2/3 175/2/3
f 178/2/3 176/2/3 177/2/3
f 181/2/3 180/2/3 179/2/3
f 182/2/3 180/2/3 181/2/3
f 185/2/3 184/2/3 183/2/3
f 186/2/3 184/2/3 185/2/3
f 189/2/3 188/2/3 187/2/3
f 190/2/3 188/2/3 189/2/3
f 195/2/3 192/2/3 191/2/3
f 196/2/3 192/2/3 195/2/3
f 197/2/3 194/2/3 193/2/3
f 198/2/3 194/2/3 197/2/3
f 199/2/3 197/2/3 196/2/3
f 200/2/3 197/2/3 199/2/3
f 202/2/3 201/2/3 200/2/3
f 203/2/3 201/2/3 202/2/3
f 207/2/3 205/2/3 204/2/3
f 208/2/3 205/2/3 207/2/3
f 210/2/3 207/2/3 206/2/3
f 211/2/3 207/2/3 210/2/3
f 213/2/3 210/2/3 209/2/3
f 214/2/3 210/2/3 213/2/3
f 215/2/3 212/2/3 211/2/3
f 216/2/3 212/2/3 215/2/3
f 217/2/4 218/2/4 221/2/4
f 221/2/4 218/2/4 222/2/4
f 219/2/4 220/2/4 223/2/4
f 223/2/4 220/2/4 224/2/4
f 222/2/4 223/2/4 225/2/4
f 225/2/4 223/2/4 226/2/4
f 226/2/4 227/2/4 228/2/4
f 228/2/4 227/2/4 229/2/4
f 230/2/4 231/2/4 233/2/4
f 233/2/4 231/2/4 234/2/4
f 232/2/4 233/2/4 236/2/4
f 236/2/4 233/2/4 237/2/4
f 235/2/4 236/2/4 239/2/4
f 239/2/4 236/2/4 240/2/4
f 237/2/4 238/2/4 241/2/4
f 241/2/4 238/2/4 242/2/4
f 243/2/4 244/2/4 245/2/4
f 245/2/4 244/2/4 246/2/4
f 247/2/4 248/2/4 249/2/4
f 249/2/4 248/2/4 250/2/4
f 251/2/4 252/2/4 253/2/4
f 253/2/4 252/2/4 254/2/4
f 255/2/4 256/2/4 257/2/4
f 257/2/4 256/2/4 258/2/4
f 259/2/4 260/2/4 261/2/4
f 261/2/4 260/2/4 262/2/4
f 263/2/4 264/2/4 265/2/4
f 265/2/4 264/2/4 266/2/4
f 267/2/4 268/2/4 269/2/4
f 269/2/4 268/2/4 270/2/4
f 270/2/4 268/2/4 271/2/4
f 271/2/4 268/2/4 272/2/4
f 270/2/4 271/2/4 273/2/4
f 273/2/4 271/2/4 274/2/4
f 272/2/4 268/2/4 275/2/4
f 274/2/4 275/2/4 276/2/4
f 275/2/4 268/2/4 277/2/4
f 276/2/4 275/2/4 277/2/4
f 277/2/4 268/2/4 279/2/4
f 278/2/4 279/2/4 281/2/4
f 279/2/4 268/2/4 282/2/4
f 281/2/4 279/2/4 282/2/4
f 280/2/4 281/2/4 284/2/4
f 284/2/4 281/2/4 285/2/4
f 282/2/4 268/2/4 286/2/4
f 284/2/4 285/2/4 287/2/4
f 285/2/4 286/2/4 287/2/4
f 283/2/4 284/2/4 287/2/4
f 286/2/4 268/2/4 288/2/4
f 287/2/4 286/2/4 288/2/4
f 293/2/5 290/2/5 289/2/5
f 294/2/5 290/2/5 293/2/5
f 295/2/5 292/2/5 291/2/5
f 296/2/5 292/2/5 295/2/5
f 301/2/5 298/2/5 297/2/5
f 302/2/5 298/2/5 301/2/5
f 303/2/5 300/2/5 299/2/5
f 304/2/5 300/2/5 303/2/5
f 310/2/5 306/2/5 305/2/5
f 311/2/5 306/2/5 310/2/5
f 312/2/5 308/2/5 307/2/5
f 313/2/5 308/2/5 312/2/5
f 315/2/5 310/2/5 309/2/5
f 316/2/5 310/2/5 315/2/5
f 317/2/5 314/2/5 313/2/5
f 318/2/5 314/2/5 317/2/5
f 323/2/5 320/2/5 319/2/5
f 324/2/5 320/2/5 323/2/5
f 327/2/5 322/2/5 321/2/5
f 328/2/5 322/2/5 327/2/5
f 329/2/5 325/2/5 324/2/5
f 330/2/5 325/2/5 329/2/5
f 331/2/5 327/2/5 326/2/5
f 332/2/5 327/2/5 331/2/5
f 337/2/5 334/2/5 333/2/5
f 338/2/5 334/2/5 337/2/5
f 339/2/5 336/2/5 335/2/5
f 340/2/5 336/2/5 339/2/5
f 345/2/5 342/2/5 341/2/5
f 346/2/5 342/2/5 345/2/5
f 347/2/5 344/2/5 343/2/5
f 348/2/5 344/2/5 347/2/5
f 353/2/5 350/2/5 349/2/5
f 354/2/5 350/2/5 353/2/5
f 355/2/5 352/2/5 351/2/5
f 356/2/5 352/2/5 355/2/5
f 361/2/5 358/2/5 357/2/5
f 362/2/5 358/2/5 361/2/5
f 363/2/5 360/2/5 359/2/5
f 364/2/5 360/2/5 363/2/5
f 372/2/5 366/2/5 365/2/5
f 373/2/5 366/2/5 372/2/5
f 374/2/5 368/2/5 367/2/5
f 375/2/5 368/2/5 374/2/5
f 376/2/5 370/2/5 369/2/5
f 377/2/5 370/2/5 376/2/5
f 379/2/5 372/2/5 371/2/5
f 380/1/5 375/1/5 374/1/5
f 380/2/5 372/2/5 379/2/5
f 380/1/5 373/1/5 372/1/5
f 380/1/5 377/1/5 376/1/5
f 380/1/5 376/1/5 375/1/5
f 380/1/5 374/1/5 373/1/5
f 381/2/5 378/2/5 377/2/5
f 381/1/5 377/1/5 380/1/5
f 382/2/5 378/2/5 381/2/5
f 384/1/5 381/1/5 380/1/5
f 385/1/5 381/1/5 384/1/5
f 387/2/5 384/2/5 383/2/5
f 388/1/5 385/1/5 384/1/5
f 388/2/5 384/2/5 387/2/5
f 389/2/5 386/2/5 385/2/5
f 389/1/5 385/1/5 388/1/5
f 390/2/5 386/2/5 389/2/5
f 392/1/5 389/1/5 388/1/5
f 393/1/5 389/1/5 392/1/5
f 395/2/5 392/2/5 391/2/5
f 396/1/5 393/1/5 392/1/5
f 396/2/5 392/2/5 395/2/5
f 397/1/5 393/1/5 396/1/5
f 398/1/5 393/1/5 397/1/5
f 399/1/5 393/1/5 398/1/5
f 400/1/5 393/1/5 399/1/5
f 401/2/5 394/2/5 393/2/5
f 401/1/5 393/1/5 400/1/5
f 402/2/5 394/2/5 401/2/5
f 403/2/5 397/2/5 396/2/5
f 404/2/5 397/2/5 403/2/5
f 405/2/5 399/2/5 398/2/5
f 406/2/5 399/2/5 405/2/5
f 407/2/5 401/2/5 400/2/5
f 408/2/5 401/2/5 407/2/5
f 409/2/6 410/2/6 414/2/6
f 414/2/6 410/2/6 415/2/6
f 411/2/6 412/2/6 416/2/6
f 416/2/6 412/2/6 417/2/6
f 413/2/6 414/2/6 419/2/6
f 419/2/6 414/2/6 420/2/6
f 417/2/6 418/2/6 421/2/6
f 421/2/6 418/2/6 422/2/6
f 423/2/6 424/2/6 427/2/6
f 427/2/6 424/2/6 428/2/6
f 425/2/6 426/2/6 431/2/6
f 431/2/6 426/2/6 432/2/6
f 428/2/6 429/2/6 433/2/6
f 433/2/6 429/2/6 434/2/6
f 430/2/6 431/2/6 435/2/6
f 435/2/6 431/2/6 436/2/6
f 437/2/6 438/2/6 439/2/6
f 439/2/6 438/2/6 440/2/6
f 439/3/6 440/3/6 441/3/6
f 441/3/6 440/3/6 442/3/6
f 442/3/6 440/3/6 443/3/6
f 443/3/6 440/3/6 444/3/6
f 444/3/6 440/3/6 445/3/6
f 445/3/6 440/3/6 446/3/6
f 439/3/6 441/3/6 447/3/6
f 441/1/6 442/1/6 447/1/6
f 442/3/6 443/3/6 448/3/6
f 447/1/6 442/1/6 448/1/6
f 443/1/6 444/1/6 449/1/6
f 448/3/6 443/3/6 449/3/6
f 444/3/6 445/3/6 450/3/6
f 449/1/6 444/1/6 450/1/6
f 445/1/6 446/1/6 451/1/6
f 450/3/6 445/3/6 451/3/6
f 446/3/6 440/3/6 452/3/6
f 451/1/6 446/1/6 452/1/6
f 450/3/6 451/3/6 453/3/6
f 449/3/6 450/3/6 453/3/6
f 451/3/6 452/3/6 453/3/6
f 448/3/6 449/3/6 453/3/6
f 447/3/6 448/3/6 453/3/6
f 439/3/6 447/3/6 453/3/6
f 453/3/6 452/3/6 454/3/6
f 454/3/6 452/3/6 455/3/6
f 455/3/6 452/3/6 456/3/6
f 456/3/6 452/3/6 457/3/6
f 452/3/6 440/3/6 458/3/6
f 457/3/6 452/3/6 458/3/6
f 439/3/6 453/3/6 459/3/6
f 453/1/6 454/1/6 459/1/6
f 454/3/6 455/3/6 460/3/6
f 459/1/6 454/1/6 460/1/6
f 455/1/6 456/1/6 461/1/6
f 460/3/6 455/3/6 461/3/6
f 456/3/6 457/3/6 462/3/6
f 461/1/6 456/1/6 462/1/6
f 457/1/6 458/1/6 463/1/6
f 462/3/6 457/3/6 463/3/6
f 458/3/6 440/3/6 464/3/6
f 463/1/6 458/1/6 464/1/6
f 460/3/6 461/3/6 465/3/6
f 462/3/6 463/3/6 465/3/6
f 463/3/6 464/3/6 465/3/6
f 459/3/6 460/3/6 465/3/6
f 439/3/6 459/3/6 465/3/6
f 461/3/6 462/3/6 465/3/6
f 465/3/6 464/3/6 466/3/6
f 466/3/6 464/3/6 467/3/6
f 467/3/6 464/3/6 468/3/6
f 468/3/6 464/3/6 469/3/6
f 464/3/6 440/3/6 470/3/6
f 469/3/6 464/3/6 470/3/6
f 439/3/6 465/3/6 471/3/6
f 465/1/6 466/1/6 471/1/6
f 466/3/6 467/3/6 472/3/6
f 471/1/6 466/1/6 472/1/6
f 467/1/6 468/1/6 473/1/6
f 472/3/6 467/3/6 473/3/6
f 468/3/6 469/3/6 474/3/6
f 473/1/6 468/1/6 474/1/6
f 469/1/6 470/1/6 475/1/6
f 474/3/6 469/3/6 475/3/6
f 470/3/6 440/3/6 476/3/6
f 475/1/6 470/1/6 476/1/6
f 437/2/6 439/2/6 477/2/6
f 472/3/6 473/3/6 477/3/6
f 475/3/6 476/3/6 477/3/6
f 471/3/6 472/3/6 477/3/6
f 439/3/6 471/3/6 477/3/6
f 473/3/6 474/3/6 477/3/6
f 474/3/6 475/3/6 477/3/6
f 476/3/6 440/3/6 478/3/6
f 477/3/6 476/3/6 478/3/6
f 440/2/6 438/2/6 478/2/6
f 437/2/6 477/2/6 479/2/6
f 477/2/6 478/2/6 479/2/6
f 478/2/6 438/2/6 480/2/6
f 479/2/6 478/2/6 480/2/6
